# xmcd
#
# Track frame offsets:
#	150
#	16307
#	30905
#	42712
#	56370
#	69760
#	84442
#	97732
#	112075
#	126727
#	141192
#	155462
#	170030
#	182130
#	195405
#	207542
#	220697
#	251097
#	272480
#	314755
#
# Disc length: 4531 seconds
#
# Revision: 7
# Processed by: cddbd v1.5.1PL0 Copyright (c) Steve Scherf et al.
# Submitted via: audiograbber 1.83.01
#
DISCID=2211b114
DTITLE=Various Artist - The Best Of Ken Burns Jazz
DYEAR=2000
DGENRE=Jazz
TTITLE0=Louis Armstrong And His Orchestra - Star Dust
TTITLE1=Jelly Roll Morton's Red Hot Peppers - Dead Man Blues
TTITLE2=Noble Sissle And His Orchestra (Featuring Sidney Bechet) - Dear Old Sou
TTITLE2=thland
TTITLE3=Frankie Trumbauer And His Orchestra (Featuring Bix Beiderbecke) - Singi
TTITLE3=n' The Blues
TTITLE4=Louis Armstrong And His Orchestra - St. Louis Blues
TTITLE5=Duke Ellington And His Orchestra - The Mooche
TTITLE6=Fletcher Henderson and His Orchestra - Hotter Than 'Ell
TTITLE7=Benny Goodman And His Orchestra - King Porter Stomp
TTITLE8=Artie Shaw And His Orchestra - Begin The Beguine
TTITLE9=Duke Elington And His Orchestra - Cotton Tail
TTITLE10=Count Basie And His Orchestra - Jumpin' At The Woodside
TTITLE11=Billie Holiday With Eddie Heywood And His Orchestra - Solitude
TTITLE12=Dizzy Gillespie Sextet (Featuring Charlie Parker) - Groovin' High
TTITLE13=Thelonious Monk - Straight, No Chaser
TTITLE14=Billie Holiday With Eddie Heywood And His Orchestra - They Can't Take 
TTITLE14=That Away From Me
TTITLE15=The Dave Brubeck Quartet - Take Five
TTITLE16=Horace Silver And The Jazz Messengers - Doodlin'
TTITLE17=John Coltrane Quartet - Giant Steps
TTITLE18=Miles Davis Sextet - So What
TTITLE19=The Lincoln Center Jazz Orchestra - Take The "A" Train
EXTD=YEAR: 2000
EXTT0=
EXTT1=
EXTT2=featuring Sidney Bechet
EXTT3=featuring Bix Beiderbecke
EXTT4=
EXTT5=
EXTT6=
EXTT7=
EXTT8=
EXTT9=
EXTT10=
EXTT11=with Eddie Heywood and His Orchestra
EXTT12=featuring Charlie Parker
EXTT13=
EXTT14=
EXTT15=
EXTT16=Horace Silver and the Jazz Messengers
EXTT17=
EXTT18=
EXTT19=
PLAYORDER=
